<svg xmlns="http://www.w3.org/2000/svg" xmlns:xlink="http://www.w3.org/1999/xlink" data-v-0dd9719b="" version="1.0" width="256" height="256" viewBox="0 0 256 256" preserveAspectRatio="xMidYMid meet" color-interpolation-filters="sRGB" style="margin: auto;">   <g data-v-0dd9719b="" fill="#333" class="icon-text-wrapper icon-svg-group iconsvg" transform="translate(52.44499969482422,95)"><g class="iconsvg-imagesvg" transform="translate(0,0)"><g><rect fill="#333" fill-opacity="0" stroke-width="2" x="0" y="0" width="60" height="60" class="image-rect"/> <svg x="0" y="0" width="60" height="60" filtersec="colorsb7494751359" class="image-svg-svg primary" style="overflow: visible;"><svg xmlns="http://www.w3.org/2000/svg" viewBox="-3.622239432843344e-7 0 277.6600036621094 277.6600036621094"><g><g><path d="M138.82 0v62.76a76.11 76.11 0 1 1-76.06 76.06H0A138.83 138.83 0 1 0 138.82 0z" fill="#29d982"/><path d="M138.82 227.44a88.53 88.53 0 0 0 88.62-88.62h37.66A126.41 126.41 0 0 1 138.82 265.1z" fill="#f8e229"/><path d="M138.82 240A101.19 101.19 0 1 1 240 138.82h12.58a113.74 113.74 0 1 0-113.76 113.74z" fill="#164ac8"/></g></g></svg></svg> <!----></g></g> </g><defs v-gra="od"/></svg>