<svg data-v-0dd9719b="" version="1.0" xmlns="http://www.w3.org/2000/svg" xmlns:xlink="http://www.w3.org/1999/xlink" width="100%" height="100%" viewBox="0 0 340.000000 250.000000" preserveAspectRatio="xMidYMid meet" color-interpolation-filters="sRGB" style="margin: auto;">   <g data-v-0dd9719b="" fill="#333" class="icon-text-wrapper icon-svg-group iconsvg" transform="translate(52.44499969482422,95)"><g class="iconsvg-imagesvg" transform="translate(0,0)"><g><rect fill="#333" fill-opacity="0" stroke-width="2" x="0" y="0" width="60" height="60" class="image-rect"></rect> <svg x="0" y="0" width="60" height="60" filtersec="colorsb7494751359" class="image-svg-svg primary" style="overflow: visible;"><svg xmlns="http://www.w3.org/2000/svg" viewBox="-3.622239432843344e-7 0 277.6600036621094 277.6600036621094"><g><g><path d="M138.82 0v62.76a76.11 76.11 0 1 1-76.06 76.06H0A138.83 138.83 0 1 0 138.82 0z" fill="#29d982"></path><path d="M138.82 227.44a88.53 88.53 0 0 0 88.62-88.62h37.66A126.41 126.41 0 0 1 138.82 265.1z" fill="#f8e229"></path><path d="M138.82 240A101.19 101.19 0 1 1 240 138.82h12.58a113.74 113.74 0 1 0-113.76 113.74z" fill="#164ac8"></path></g></g></svg></svg> <!----></g></g> <g transform="translate(67,2.243753433227539)"><g data-gra="path-name" fill-rule="" class="tp-name iconsvg-namesvg" transform="translate(0,0)"><g transform="scale(1)"><g><path d="M15.29-28.3L15.29-28.3Q18.34-28.3 20.8-27.28 23.27-26.26 24.98-24.39 26.7-22.52 27.62-19.87 28.55-17.21 28.55-13.94L28.55-13.94Q28.55-10.64 27.62-8 26.7-5.36 24.98-3.49 23.27-1.62 20.8-0.62 18.34 0.39 15.29 0.39L15.29 0.39Q12.24 0.39 9.78-0.62 7.32-1.62 5.58-3.49 3.85-5.36 2.92-8 1.98-10.64 1.98-13.94L1.98-13.94Q1.98-17.21 2.92-19.87 3.85-22.52 5.58-24.39 7.32-26.26 9.78-27.28 12.24-28.3 15.29-28.3ZM15.29-3.44L15.29-3.44Q19.41-3.44 21.45-6.2 23.48-8.96 23.48-13.92L23.48-13.92Q23.48-18.89 21.45-21.67 19.41-24.45 15.29-24.45L15.29-24.45Q13.2-24.45 11.66-23.73 10.12-23.02 9.09-21.67 8.06-20.32 7.55-18.36 7.04-16.39 7.04-13.92L7.04-13.92Q7.04-11.44 7.55-9.49 8.06-7.54 9.09-6.2 10.12-4.87 11.66-4.15 13.2-3.44 15.29-3.44ZM51.65-25.05L50.55-23.27Q50.22-22.66 49.53-22.66L49.53-22.66Q49.12-22.66 48.59-22.96 48.07-23.27 47.31-23.64 46.56-24.01 45.51-24.32 44.47-24.64 43.04-24.64L43.04-24.64Q41.8-24.64 40.81-24.32 39.82-24.01 39.12-23.46 38.42-22.91 38.05-22.18 37.68-21.45 37.68-20.6L37.68-20.6Q37.68-19.52 38.29-18.81 38.91-18.09 39.93-17.57 40.95-17.05 42.24-16.65 43.53-16.25 44.89-15.8 46.26-15.35 47.55-14.79 48.84-14.24 49.86-13.42 50.88-12.6 51.49-11.4 52.11-10.2 52.11-8.53L52.11-8.53Q52.11-6.6 51.42-4.96 50.74-3.33 49.39-2.13 48.04-0.94 46.09-0.25 44.14 0.44 41.58 0.44L41.58 0.44Q38.67 0.44 36.3-0.51 33.94-1.46 32.29-2.94L32.29-2.94 33.44-4.81Q33.66-5.17 33.96-5.36 34.27-5.55 34.76-5.55L34.76-5.55Q35.26-5.55 35.8-5.17 36.36-4.79 37.14-4.32 37.92-3.85 39.04-3.46 40.15-3.08 41.83-3.08L41.83-3.08Q43.26-3.08 44.33-3.45 45.4-3.82 46.12-4.46 46.83-5.09 47.18-5.91 47.52-6.74 47.52-7.67L47.52-7.67Q47.52-8.83 46.9-9.58 46.28-10.34 45.27-10.88 44.25-11.41 42.94-11.81 41.64-12.21 40.27-12.65 38.91-13.09 37.61-13.65 36.3-14.22 35.28-15.07 34.27-15.92 33.65-17.17 33.03-18.43 33.03-20.21L33.03-20.21Q33.03-21.81 33.69-23.28 34.35-24.75 35.61-25.86 36.88-26.98 38.72-27.64 40.56-28.3 42.93-28.3L42.93-28.3Q45.68-28.3 47.86-27.43 50.05-26.57 51.65-25.05L51.65-25.05ZM59.02-27.86L63.91-27.86 63.91 0 59.02 0 59.02-27.86ZM65.01-36.6L65.01-36.6Q65.01-35.89 64.72-35.27 64.43-34.65 63.95-34.17 63.47-33.69 62.84-33.41 62.21-33.14 61.49-33.14L61.49-33.14Q60.78-33.14 60.16-33.41 59.54-33.69 59.06-34.17 58.58-34.65 58.3-35.27 58.03-35.89 58.03-36.6L58.03-36.6Q58.03-37.32 58.3-37.96 58.58-38.61 59.06-39.09 59.54-39.57 60.16-39.85 60.78-40.12 61.49-40.12L61.49-40.12Q62.21-40.12 62.84-39.85 63.47-39.57 63.95-39.09 64.43-38.61 64.72-37.96 65.01-37.32 65.01-36.6ZM77.44 0L72.55 0 72.55-27.86 75.46-27.86Q76.5-27.86 76.78-26.84L76.78-26.84 77.17-23.82Q78.98-25.82 81.22-27.06 83.46-28.3 86.41-28.3L86.41-28.3Q88.69-28.3 90.43-27.54 92.18-26.79 93.35-25.4 94.52-24.01 95.12-22.05 95.73-20.1 95.73-17.74L95.73-17.74 95.73 0 90.83 0 90.83-17.74Q90.83-20.9 89.39-22.65 87.94-24.39 84.97-24.39L84.97-24.39Q82.8-24.39 80.92-23.35 79.03-22.3 77.44-20.52L77.44-20.52 77.44 0ZM111.57 0.44L111.57 0.44Q108.27 0.44 106.49-1.4 104.72-3.25 104.72-6.71L104.72-6.71 104.72-23.76 101.36-23.76Q100.92-23.76 100.62-24.02 100.32-24.28 100.32-24.83L100.32-24.83 100.32-26.79 104.89-27.36 106.01-35.97Q106.07-36.38 106.37-36.64 106.67-36.91 107.14-36.91L107.14-36.91 109.61-36.91 109.61-27.31 117.59-27.31 117.59-23.76 109.61-23.76 109.61-7.04Q109.61-5.28 110.47-4.43 111.32-3.58 112.67-3.58L112.67-3.58Q113.44-3.58 114-3.78 114.56-3.99 114.98-4.24 115.39-4.48 115.68-4.69 115.97-4.9 116.19-4.9L116.19-4.9Q116.57-4.9 116.88-4.43L116.88-4.43 118.31-2.09Q117.04-0.91 115.25-0.23 113.47 0.44 111.57 0.44ZM140.69-25.05L139.59-23.27Q139.26-22.66 138.57-22.66L138.57-22.66Q138.16-22.66 137.64-22.96 137.12-23.27 136.36-23.64 135.6-24.01 134.56-24.32 133.51-24.64 132.08-24.64L132.08-24.64Q130.84-24.64 129.85-24.32 128.87-24.01 128.16-23.46 127.46-22.91 127.09-22.18 126.72-21.45 126.72-20.6L126.72-20.6Q126.72-19.52 127.34-18.81 127.96-18.09 128.97-17.57 129.99-17.05 131.28-16.65 132.58-16.25 133.94-15.8 135.3-15.35 136.59-14.79 137.88-14.24 138.9-13.42 139.92-12.6 140.54-11.4 141.16-10.2 141.16-8.53L141.16-8.53Q141.16-6.6 140.47-4.96 139.78-3.33 138.44-2.13 137.09-0.94 135.13-0.25 133.18 0.44 130.63 0.44L130.63 0.44Q127.71 0.44 125.34-0.51 122.98-1.46 121.33-2.94L121.33-2.94 122.48-4.81Q122.7-5.17 123.01-5.36 123.31-5.55 123.81-5.55L123.81-5.55Q124.3-5.55 124.85-5.17 125.4-4.79 126.18-4.32 126.97-3.85 128.08-3.46 129.19-3.08 130.87-3.08L130.87-3.08Q132.3-3.08 133.38-3.45 134.45-3.82 135.16-4.46 135.88-5.09 136.22-5.91 136.56-6.74 136.56-7.67L136.56-7.67Q136.56-8.83 135.95-9.58 135.33-10.34 134.31-10.88 133.29-11.41 131.99-11.81 130.68-12.21 129.32-12.65 127.96-13.09 126.65-13.65 125.34-14.22 124.33-15.07 123.31-15.92 122.69-17.17 122.07-18.43 122.07-20.21L122.07-20.21Q122.07-21.81 122.73-23.28 123.39-24.75 124.66-25.86 125.92-26.98 127.77-27.64 129.61-28.3 131.97-28.3L131.97-28.3Q134.72-28.3 136.91-27.43 139.09-26.57 140.69-25.05L140.69-25.05ZM158.54-28.3L158.54-28.3Q161.04-28.3 163.16-27.46 165.28-26.62 166.81-25.04 168.36-23.46 169.22-21.13 170.09-18.81 170.09-15.84L170.09-15.84Q170.09-14.69 169.84-14.3 169.59-13.92 168.91-13.92L168.91-13.92 150.37-13.92Q150.43-11.28 151.09-9.32 151.75-7.37 152.9-6.06 154.06-4.76 155.65-4.11 157.25-3.46 159.22-3.46L159.22-3.46Q161.07-3.46 162.4-3.89 163.74-4.32 164.7-4.81 165.66-5.31 166.31-5.73 166.95-6.16 167.42-6.16L167.42-6.16Q168.03-6.16 168.36-5.69L168.36-5.69 169.73-3.9Q168.82-2.81 167.56-1.99 166.29-1.18 164.85-0.66 163.41-0.14 161.87 0.12 160.33 0.39 158.81 0.39L158.81 0.39Q155.93 0.39 153.49-0.59 151.06-1.57 149.28-3.45 147.51-5.33 146.52-8.11 145.53-10.89 145.53-14.49L145.53-14.49Q145.53-17.41 146.42-19.94 147.32-22.47 149-24.32 150.67-26.18 153.09-27.24 155.51-28.3 158.54-28.3ZM158.65-24.7L158.65-24.7Q155.1-24.7 153.06-22.65 151.03-20.6 150.53-16.97L150.53-16.97 165.69-16.97Q165.69-18.67 165.22-20.09 164.75-21.5 163.84-22.54 162.94-23.57 161.63-24.13 160.33-24.7 158.65-24.7Z" transform="translate(-1.9800000190734863, 40.119998931884766)"></path></g> <!----> <!----> <!----> <!----> <!----> <!----> <!----></g></g> <g data-gra="path-slogan" fill-rule="" class="tp-slogan iconsvg-slogansvg" fill="#333" transform="translate(5,46.55999755859375)"><rect x="0" height="1" y="3.9750003814697266" width="60.30500030517578"></rect> <rect height="1" y="3.9750003814697266" width="60.30500030517578" x="97.80500030517578"></rect> <g transform="translate(63.30500030517578,0)"><g transform="scale(1)"><path d="M4.13-7.64L2.06-7.64L2.06-4.97L4.13-4.97Q5.95-4.92 5.91-6.38L5.91-6.38Q5.91-7.64 4.13-7.64L4.13-7.64ZM4.59 0L0.89 0L0.89-8.58L4.69-8.58Q6.98-8.48 7.08-6.42L7.08-6.42Q7.08-5.16 5.95-4.64L5.95-4.64Q7.55-4.08 7.55-2.53L7.55-2.53Q7.41-0.09 4.59 0L4.59 0ZM4.31-3.98L2.06-3.98L2.06-0.98L4.55-0.98Q6.33-1.03 6.38-2.53L6.38-2.53Q6.38-3.98 4.31-3.98L4.31-3.98ZM8.86-8.58L10.03-8.58L10.03-1.03L14.39-1.03L14.39 0L8.86 0L8.86-8.58ZM22.31-4.27L22.31-4.27Q22.13-7.64 19.31-7.83L19.31-7.83Q16.45-7.69 16.31-4.27L16.31-4.27Q16.45-0.94 19.31-0.80L19.31-0.80Q22.13-0.98 22.31-4.27ZM23.48-4.27L23.48-4.27Q23.20 0 19.31 0.14L19.31 0.14Q15.38 0 15.09-4.27L15.09-4.27Q15.33-8.72 19.31-8.81L19.31-8.81Q23.20-8.67 23.48-4.27ZM31.27-3.61L28.64-3.61L28.64-4.59L32.39-4.59L32.39 0L31.64 0L31.36-1.08Q30.38 0.09 28.55 0.14L28.55 0.14Q26.81 0.14 25.88-0.75L25.88-0.75Q24.47-2.06 24.52-4.36L24.52-4.36Q24.84-8.63 28.59-8.81L28.59-8.81Q31.78-8.63 32.25-6L32.25-6L31.13-6Q30.66-7.78 28.55-7.83L28.55-7.83Q25.88-7.64 25.73-4.31L25.73-4.31Q25.73-0.75 28.59-0.75L28.59-0.75Q29.63-0.75 30.38-1.31L30.38-1.31Q31.31-2.06 31.27-3.61L31.27-3.61Z" transform="translate(-0.890625, 8.8125)"></path></g></g></g></g></g><defs v-gra="od"></defs></svg>